<mxfile host="app.diagrams.net" agent="Mozilla/5.0 (Windows NT 10.0; Win64; x64) AppleWebKit/537.36 (KHTML, like Gecko) Chrome/131.0.0.0 Safari/537.36" version="26.0.5">
  <diagram name="Pagina-1" id="MbRyjYETofZsR4-3Njn7">
    <mxGraphModel dx="2868" dy="391" grid="1" gridSize="10" guides="1" tooltips="1" connect="1" arrows="1" fold="1" page="1" pageScale="1" pageWidth="827" pageHeight="1169" math="0" shadow="0">
      <root>
        <mxCell id="0" />
        <mxCell id="1" parent="0" />
        <mxCell id="Lwe1MgsLQpCPCCq5rCXx-76" value="" style="rounded=1;whiteSpace=wrap;html=1;strokeWidth=2;strokeColor=none;absoluteArcSize=1;arcSize=0;" vertex="1" parent="1">
          <mxGeometry x="202" y="4530" width="990" height="450" as="geometry" />
        </mxCell>
        <mxCell id="Lwe1MgsLQpCPCCq5rCXx-1" value="" style="rounded=1;whiteSpace=wrap;html=1;strokeWidth=2;strokeColor=none;absoluteArcSize=1;arcSize=0;" vertex="1" parent="1">
          <mxGeometry x="140" y="2170" width="990" height="450" as="geometry" />
        </mxCell>
        <mxCell id="Lwe1MgsLQpCPCCq5rCXx-2" value="&lt;font style=&quot;font-size: 16px;&quot;&gt;5ebf39d&lt;/font&gt;" style="ellipse;whiteSpace=wrap;html=1;aspect=fixed;strokeWidth=2;fillColor=#dae8fc;strokeColor=#6c8ebf;" vertex="1" parent="1">
          <mxGeometry x="365.25" y="2310" width="80" height="80" as="geometry" />
        </mxCell>
        <mxCell id="Lwe1MgsLQpCPCCq5rCXx-3" value="&lt;font style=&quot;font-size: 16px;&quot;&gt;&quot;first commit&quot;&lt;/font&gt;" style="text;html=1;align=center;verticalAlign=middle;whiteSpace=wrap;rounded=0;" vertex="1" parent="1">
          <mxGeometry x="350" y="2280" width="110.5" height="30" as="geometry" />
        </mxCell>
        <mxCell id="Lwe1MgsLQpCPCCq5rCXx-4" style="edgeStyle=orthogonalEdgeStyle;rounded=0;orthogonalLoop=1;jettySize=auto;html=1;endArrow=none;endFill=0;startArrow=classic;startFill=1;strokeWidth=2;" edge="1" parent="1">
          <mxGeometry relative="1" as="geometry">
            <mxPoint x="839.5" y="2500" as="targetPoint" />
            <mxPoint x="839.5" y="2460" as="sourcePoint" />
          </mxGeometry>
        </mxCell>
        <mxCell id="Lwe1MgsLQpCPCCq5rCXx-5" value="&lt;font style=&quot;font-size: 16px;&quot;&gt;HEAD&lt;/font&gt;" style="text;html=1;align=center;verticalAlign=middle;whiteSpace=wrap;rounded=0;fillColor=#f8cecc;strokeColor=#b85450;" vertex="1" parent="1">
          <mxGeometry x="810" y="2490" width="60" height="30" as="geometry" />
        </mxCell>
        <mxCell id="Lwe1MgsLQpCPCCq5rCXx-6" value="&lt;font style=&quot;font-size: 16px;&quot;&gt;master&lt;/font&gt;" style="text;html=1;align=center;verticalAlign=middle;whiteSpace=wrap;rounded=0;fillColor=#dae8fc;strokeColor=#6c8ebf;" vertex="1" parent="1">
          <mxGeometry x="810" y="2430" width="60" height="30" as="geometry" />
        </mxCell>
        <mxCell id="Lwe1MgsLQpCPCCq5rCXx-7" value="" style="endArrow=classic;html=1;rounded=0;entryX=0.5;entryY=1;entryDx=0;entryDy=0;exitX=0.5;exitY=0;exitDx=0;exitDy=0;strokeWidth=2;" edge="1" parent="1" source="Lwe1MgsLQpCPCCq5rCXx-6">
          <mxGeometry width="50" height="50" relative="1" as="geometry">
            <mxPoint x="780" y="2460" as="sourcePoint" />
            <mxPoint x="840" y="2390" as="targetPoint" />
          </mxGeometry>
        </mxCell>
        <mxCell id="Lwe1MgsLQpCPCCq5rCXx-8" style="edgeStyle=orthogonalEdgeStyle;rounded=0;orthogonalLoop=1;jettySize=auto;html=1;entryX=1;entryY=0.5;entryDx=0;entryDy=0;strokeWidth=2;" edge="1" parent="1" source="Lwe1MgsLQpCPCCq5rCXx-9" target="Lwe1MgsLQpCPCCq5rCXx-2">
          <mxGeometry relative="1" as="geometry" />
        </mxCell>
        <mxCell id="Lwe1MgsLQpCPCCq5rCXx-9" value="&lt;font style=&quot;font-size: 16px;&quot;&gt;b9b394f&lt;/font&gt;" style="ellipse;whiteSpace=wrap;html=1;aspect=fixed;strokeWidth=2;fillColor=#dae8fc;strokeColor=#6c8ebf;" vertex="1" parent="1">
          <mxGeometry x="522.5" y="2310" width="80" height="80" as="geometry" />
        </mxCell>
        <mxCell id="Lwe1MgsLQpCPCCq5rCXx-10" value="&lt;font style=&quot;font-size: 16px;&quot;&gt;&quot;second commit&quot;&lt;/font&gt;" style="text;html=1;align=center;verticalAlign=middle;whiteSpace=wrap;rounded=0;" vertex="1" parent="1">
          <mxGeometry x="502.25" y="2280" width="120.5" height="30" as="geometry" />
        </mxCell>
        <mxCell id="Lwe1MgsLQpCPCCq5rCXx-17" style="edgeStyle=orthogonalEdgeStyle;rounded=0;orthogonalLoop=1;jettySize=auto;html=1;entryX=1;entryY=0.5;entryDx=0;entryDy=0;strokeWidth=2;" edge="1" parent="1" source="Lwe1MgsLQpCPCCq5rCXx-15" target="Lwe1MgsLQpCPCCq5rCXx-9">
          <mxGeometry relative="1" as="geometry" />
        </mxCell>
        <mxCell id="Lwe1MgsLQpCPCCq5rCXx-15" value="&lt;font style=&quot;font-size: 16px;&quot;&gt;7ffe2cf&lt;/font&gt;" style="ellipse;whiteSpace=wrap;html=1;aspect=fixed;strokeWidth=2;fillColor=#dae8fc;strokeColor=#6c8ebf;" vertex="1" parent="1">
          <mxGeometry x="667" y="2310" width="80" height="80" as="geometry" />
        </mxCell>
        <mxCell id="Lwe1MgsLQpCPCCq5rCXx-18" style="edgeStyle=orthogonalEdgeStyle;rounded=0;orthogonalLoop=1;jettySize=auto;html=1;entryX=1;entryY=0.5;entryDx=0;entryDy=0;strokeWidth=2;" edge="1" parent="1" source="Lwe1MgsLQpCPCCq5rCXx-16" target="Lwe1MgsLQpCPCCq5rCXx-15">
          <mxGeometry relative="1" as="geometry" />
        </mxCell>
        <mxCell id="Lwe1MgsLQpCPCCq5rCXx-16" value="&lt;font style=&quot;font-size: 16px;&quot;&gt;23a76be&lt;/font&gt;" style="ellipse;whiteSpace=wrap;html=1;aspect=fixed;strokeWidth=2;fillColor=#dae8fc;strokeColor=#6c8ebf;" vertex="1" parent="1">
          <mxGeometry x="800" y="2310" width="80" height="80" as="geometry" />
        </mxCell>
        <mxCell id="Lwe1MgsLQpCPCCq5rCXx-19" value="&lt;font style=&quot;font-size: 16px;&quot;&gt;&quot;third commit&quot;&lt;/font&gt;" style="text;html=1;align=center;verticalAlign=middle;whiteSpace=wrap;rounded=0;" vertex="1" parent="1">
          <mxGeometry x="646.75" y="2280" width="120.5" height="30" as="geometry" />
        </mxCell>
        <mxCell id="Lwe1MgsLQpCPCCq5rCXx-20" value="&lt;font style=&quot;font-size: 16px;&quot;&gt;&quot;fourth commit&quot;&lt;/font&gt;" style="text;html=1;align=center;verticalAlign=middle;whiteSpace=wrap;rounded=0;" vertex="1" parent="1">
          <mxGeometry x="780" y="2280" width="120.5" height="30" as="geometry" />
        </mxCell>
        <mxCell id="Lwe1MgsLQpCPCCq5rCXx-21" value="" style="rounded=1;whiteSpace=wrap;html=1;strokeWidth=2;strokeColor=none;absoluteArcSize=1;arcSize=0;" vertex="1" parent="1">
          <mxGeometry x="130" y="2720" width="990" height="450" as="geometry" />
        </mxCell>
        <mxCell id="Lwe1MgsLQpCPCCq5rCXx-22" value="&lt;font style=&quot;font-size: 16px;&quot;&gt;5ebf39d&lt;/font&gt;" style="ellipse;whiteSpace=wrap;html=1;aspect=fixed;strokeWidth=2;fillColor=#dae8fc;strokeColor=#6c8ebf;" vertex="1" parent="1">
          <mxGeometry x="355.25" y="2860" width="80" height="80" as="geometry" />
        </mxCell>
        <mxCell id="Lwe1MgsLQpCPCCq5rCXx-23" value="&lt;font style=&quot;font-size: 16px;&quot;&gt;&quot;first commit&quot;&lt;/font&gt;" style="text;html=1;align=center;verticalAlign=middle;whiteSpace=wrap;rounded=0;" vertex="1" parent="1">
          <mxGeometry x="340" y="2830" width="110.5" height="30" as="geometry" />
        </mxCell>
        <mxCell id="Lwe1MgsLQpCPCCq5rCXx-24" style="edgeStyle=orthogonalEdgeStyle;rounded=0;orthogonalLoop=1;jettySize=auto;html=1;endArrow=none;endFill=0;startArrow=classic;startFill=1;strokeWidth=2;" edge="1" parent="1">
          <mxGeometry relative="1" as="geometry">
            <mxPoint x="696.5" y="3050" as="targetPoint" />
            <mxPoint x="696.5" y="3010" as="sourcePoint" />
          </mxGeometry>
        </mxCell>
        <mxCell id="Lwe1MgsLQpCPCCq5rCXx-25" value="&lt;font style=&quot;font-size: 16px;&quot;&gt;HEAD&lt;/font&gt;" style="text;html=1;align=center;verticalAlign=middle;whiteSpace=wrap;rounded=0;fillColor=#f8cecc;strokeColor=#b85450;" vertex="1" parent="1">
          <mxGeometry x="667" y="3040" width="60" height="30" as="geometry" />
        </mxCell>
        <mxCell id="Lwe1MgsLQpCPCCq5rCXx-26" value="&lt;font style=&quot;font-size: 16px;&quot;&gt;master&lt;/font&gt;" style="text;html=1;align=center;verticalAlign=middle;whiteSpace=wrap;rounded=0;fillColor=#dae8fc;strokeColor=#6c8ebf;" vertex="1" parent="1">
          <mxGeometry x="667" y="2980" width="60" height="30" as="geometry" />
        </mxCell>
        <mxCell id="Lwe1MgsLQpCPCCq5rCXx-27" value="" style="endArrow=classic;html=1;rounded=0;entryX=0.5;entryY=1;entryDx=0;entryDy=0;exitX=0.5;exitY=0;exitDx=0;exitDy=0;strokeWidth=2;" edge="1" parent="1" source="Lwe1MgsLQpCPCCq5rCXx-26">
          <mxGeometry width="50" height="50" relative="1" as="geometry">
            <mxPoint x="637" y="3010" as="sourcePoint" />
            <mxPoint x="697" y="2940" as="targetPoint" />
          </mxGeometry>
        </mxCell>
        <mxCell id="Lwe1MgsLQpCPCCq5rCXx-28" style="edgeStyle=orthogonalEdgeStyle;rounded=0;orthogonalLoop=1;jettySize=auto;html=1;entryX=1;entryY=0.5;entryDx=0;entryDy=0;strokeWidth=2;" edge="1" parent="1" source="Lwe1MgsLQpCPCCq5rCXx-29" target="Lwe1MgsLQpCPCCq5rCXx-22">
          <mxGeometry relative="1" as="geometry" />
        </mxCell>
        <mxCell id="Lwe1MgsLQpCPCCq5rCXx-29" value="&lt;font style=&quot;font-size: 16px;&quot;&gt;b9b394f&lt;/font&gt;" style="ellipse;whiteSpace=wrap;html=1;aspect=fixed;strokeWidth=2;fillColor=#dae8fc;strokeColor=#6c8ebf;" vertex="1" parent="1">
          <mxGeometry x="512.5" y="2860" width="80" height="80" as="geometry" />
        </mxCell>
        <mxCell id="Lwe1MgsLQpCPCCq5rCXx-30" value="&lt;font style=&quot;font-size: 16px;&quot;&gt;&quot;second commit&quot;&lt;/font&gt;" style="text;html=1;align=center;verticalAlign=middle;whiteSpace=wrap;rounded=0;" vertex="1" parent="1">
          <mxGeometry x="492.25" y="2830" width="120.5" height="30" as="geometry" />
        </mxCell>
        <mxCell id="Lwe1MgsLQpCPCCq5rCXx-31" style="edgeStyle=orthogonalEdgeStyle;rounded=0;orthogonalLoop=1;jettySize=auto;html=1;entryX=1;entryY=0.5;entryDx=0;entryDy=0;strokeWidth=2;" edge="1" parent="1" source="Lwe1MgsLQpCPCCq5rCXx-32" target="Lwe1MgsLQpCPCCq5rCXx-29">
          <mxGeometry relative="1" as="geometry" />
        </mxCell>
        <mxCell id="Lwe1MgsLQpCPCCq5rCXx-32" value="&lt;font style=&quot;font-size: 16px;&quot;&gt;7ffe2cf&lt;/font&gt;" style="ellipse;whiteSpace=wrap;html=1;aspect=fixed;strokeWidth=2;fillColor=#dae8fc;strokeColor=#6c8ebf;" vertex="1" parent="1">
          <mxGeometry x="657" y="2860" width="80" height="80" as="geometry" />
        </mxCell>
        <mxCell id="Lwe1MgsLQpCPCCq5rCXx-33" style="edgeStyle=orthogonalEdgeStyle;rounded=0;orthogonalLoop=1;jettySize=auto;html=1;entryX=1;entryY=0.5;entryDx=0;entryDy=0;strokeWidth=2;opacity=40;" edge="1" parent="1" source="Lwe1MgsLQpCPCCq5rCXx-34" target="Lwe1MgsLQpCPCCq5rCXx-32">
          <mxGeometry relative="1" as="geometry" />
        </mxCell>
        <mxCell id="Lwe1MgsLQpCPCCq5rCXx-34" value="&lt;font style=&quot;font-size: 16px;&quot;&gt;23a76be&lt;/font&gt;" style="ellipse;whiteSpace=wrap;html=1;aspect=fixed;strokeWidth=2;fillColor=#dae8fc;strokeColor=#6c8ebf;opacity=40;fontColor=#BFBFBF;" vertex="1" parent="1">
          <mxGeometry x="790" y="2860" width="80" height="80" as="geometry" />
        </mxCell>
        <mxCell id="Lwe1MgsLQpCPCCq5rCXx-35" value="&lt;font style=&quot;font-size: 16px;&quot;&gt;&quot;third commit&quot;&lt;/font&gt;" style="text;html=1;align=center;verticalAlign=middle;whiteSpace=wrap;rounded=0;" vertex="1" parent="1">
          <mxGeometry x="636.75" y="2830" width="120.5" height="30" as="geometry" />
        </mxCell>
        <mxCell id="Lwe1MgsLQpCPCCq5rCXx-36" value="&lt;font style=&quot;font-size: 16px;&quot;&gt;&quot;fourth commit&quot;&lt;/font&gt;" style="text;html=1;align=center;verticalAlign=middle;whiteSpace=wrap;rounded=0;opacity=40;fontColor=#BFBFBF;" vertex="1" parent="1">
          <mxGeometry x="770" y="2830" width="120.5" height="30" as="geometry" />
        </mxCell>
        <mxCell id="Lwe1MgsLQpCPCCq5rCXx-37" value="git reset 7ffe2cf" style="rounded=1;whiteSpace=wrap;html=1;fillColor=#f5f5f5;fontColor=#333333;strokeColor=#666666;fontStyle=1;fontSize=16;" vertex="1" parent="1">
          <mxGeometry x="541.69" y="2720" width="166.63" height="40" as="geometry" />
        </mxCell>
        <mxCell id="Lwe1MgsLQpCPCCq5rCXx-38" value="" style="rounded=1;whiteSpace=wrap;html=1;strokeWidth=2;strokeColor=none;absoluteArcSize=1;arcSize=0;" vertex="1" parent="1">
          <mxGeometry x="202" y="4350" width="990" height="450" as="geometry" />
        </mxCell>
        <mxCell id="Lwe1MgsLQpCPCCq5rCXx-41" style="edgeStyle=orthogonalEdgeStyle;rounded=0;orthogonalLoop=1;jettySize=auto;html=1;endArrow=none;endFill=0;startArrow=classic;startFill=1;strokeWidth=2;" edge="1" parent="1">
          <mxGeometry relative="1" as="geometry">
            <mxPoint x="456.75" y="4922" as="targetPoint" />
            <mxPoint x="456.75" y="4882" as="sourcePoint" />
          </mxGeometry>
        </mxCell>
        <mxCell id="Lwe1MgsLQpCPCCq5rCXx-42" value="&lt;font style=&quot;font-size: 16px;&quot;&gt;HEAD&lt;/font&gt;" style="text;html=1;align=center;verticalAlign=middle;whiteSpace=wrap;rounded=0;fillColor=#f8cecc;strokeColor=#b85450;" vertex="1" parent="1">
          <mxGeometry x="427.25" y="4912" width="60" height="30" as="geometry" />
        </mxCell>
        <mxCell id="Lwe1MgsLQpCPCCq5rCXx-43" value="&lt;font style=&quot;font-size: 16px;&quot;&gt;master&lt;/font&gt;" style="text;html=1;align=center;verticalAlign=middle;whiteSpace=wrap;rounded=0;fillColor=#dae8fc;strokeColor=#6c8ebf;" vertex="1" parent="1">
          <mxGeometry x="427.25" y="4852" width="60" height="30" as="geometry" />
        </mxCell>
        <mxCell id="Lwe1MgsLQpCPCCq5rCXx-44" value="" style="endArrow=classic;html=1;rounded=0;entryX=0.5;entryY=1;entryDx=0;entryDy=0;exitX=0.5;exitY=0;exitDx=0;exitDy=0;strokeWidth=2;" edge="1" parent="1" source="Lwe1MgsLQpCPCCq5rCXx-43">
          <mxGeometry width="50" height="50" relative="1" as="geometry">
            <mxPoint x="397.25" y="4882" as="sourcePoint" />
            <mxPoint x="457.25" y="4812" as="targetPoint" />
          </mxGeometry>
        </mxCell>
        <mxCell id="Lwe1MgsLQpCPCCq5rCXx-54" style="edgeStyle=orthogonalEdgeStyle;rounded=0;orthogonalLoop=1;jettySize=auto;html=1;entryX=1;entryY=0.5;entryDx=0;entryDy=0;strokeWidth=2;opacity=40;" edge="1" parent="1" source="Lwe1MgsLQpCPCCq5rCXx-51" target="Lwe1MgsLQpCPCCq5rCXx-39">
          <mxGeometry relative="1" as="geometry" />
        </mxCell>
        <mxCell id="Lwe1MgsLQpCPCCq5rCXx-53" value="&lt;font style=&quot;font-size: 16px;&quot;&gt;&quot;fourth commit&quot;&lt;/font&gt;" style="text;html=1;align=center;verticalAlign=middle;whiteSpace=wrap;rounded=0;fontColor=#BFBFBF;" vertex="1" parent="1">
          <mxGeometry x="771.5" y="4702" width="120.5" height="30" as="geometry" />
        </mxCell>
        <mxCell id="Lwe1MgsLQpCPCCq5rCXx-55" value="file1.txt" style="text;html=1;align=center;verticalAlign=middle;whiteSpace=wrap;rounded=0;" vertex="1" parent="1">
          <mxGeometry x="478.5" y="4632" width="80" height="30" as="geometry" />
        </mxCell>
        <mxCell id="Lwe1MgsLQpCPCCq5rCXx-56" value="" style="whiteSpace=wrap;html=1;shape=mxgraph.basic.document;strokeWidth=2;fillColor=#fff2cc;strokeColor=#d6b656;" vertex="1" parent="1">
          <mxGeometry x="466" y="4662" width="105" height="100" as="geometry" />
        </mxCell>
        <mxCell id="Lwe1MgsLQpCPCCq5rCXx-57" value="first commit" style="text;html=1;align=center;verticalAlign=middle;whiteSpace=wrap;rounded=0;" vertex="1" parent="1">
          <mxGeometry x="473" y="4672" width="65" height="30" as="geometry" />
        </mxCell>
        <mxCell id="Lwe1MgsLQpCPCCq5rCXx-40" value="&lt;font style=&quot;font-size: 16px;&quot;&gt;&quot;first commit&quot;&lt;/font&gt;" style="text;html=1;align=center;verticalAlign=middle;whiteSpace=wrap;rounded=0;" vertex="1" parent="1">
          <mxGeometry x="355" y="4702" width="110.5" height="30" as="geometry" />
        </mxCell>
        <mxCell id="Lwe1MgsLQpCPCCq5rCXx-39" value="&lt;font style=&quot;font-size: 16px;&quot;&gt;5ebf39d&lt;/font&gt;" style="ellipse;whiteSpace=wrap;html=1;aspect=fixed;strokeWidth=2;fillColor=#dae8fc;strokeColor=#6c8ebf;" vertex="1" parent="1">
          <mxGeometry x="417.25" y="4732" width="80" height="80" as="geometry" />
        </mxCell>
        <mxCell id="Lwe1MgsLQpCPCCq5rCXx-58" value="file1.txt" style="text;html=1;align=center;verticalAlign=middle;whiteSpace=wrap;rounded=0;fontColor=#BFBFBF;" vertex="1" parent="1">
          <mxGeometry x="904.5" y="4632" width="80" height="30" as="geometry" />
        </mxCell>
        <mxCell id="Lwe1MgsLQpCPCCq5rCXx-59" value="" style="whiteSpace=wrap;html=1;shape=mxgraph.basic.document;strokeWidth=2;fillColor=#fff2cc;strokeColor=#d6b656;opacity=40;" vertex="1" parent="1">
          <mxGeometry x="892" y="4662" width="105" height="100" as="geometry" />
        </mxCell>
        <mxCell id="Lwe1MgsLQpCPCCq5rCXx-60" value="first commit" style="text;html=1;align=center;verticalAlign=middle;whiteSpace=wrap;rounded=0;fontColor=#BFBFBF;" vertex="1" parent="1">
          <mxGeometry x="899" y="4672" width="65" height="30" as="geometry" />
        </mxCell>
        <mxCell id="Lwe1MgsLQpCPCCq5rCXx-61" value="second commit" style="text;html=1;align=center;verticalAlign=middle;whiteSpace=wrap;rounded=0;fontColor=#BFBFBF;" vertex="1" parent="1">
          <mxGeometry x="890" y="4692" width="103" height="30" as="geometry" />
        </mxCell>
        <mxCell id="Lwe1MgsLQpCPCCq5rCXx-51" value="&lt;font style=&quot;font-size: 16px;&quot;&gt;23a76be&lt;/font&gt;" style="ellipse;whiteSpace=wrap;html=1;aspect=fixed;strokeWidth=2;fillColor=#dae8fc;strokeColor=#6c8ebf;opacity=40;fontColor=#BFBFBF;" vertex="1" parent="1">
          <mxGeometry x="852" y="4732" width="80" height="80" as="geometry" />
        </mxCell>
        <mxCell id="Lwe1MgsLQpCPCCq5rCXx-62" value="" style="rounded=1;whiteSpace=wrap;html=1;strokeWidth=2;" vertex="1" parent="1">
          <mxGeometry x="252" y="4432" width="190" height="190" as="geometry" />
        </mxCell>
        <mxCell id="Lwe1MgsLQpCPCCq5rCXx-63" value="Working Area" style="text;html=1;align=center;verticalAlign=middle;whiteSpace=wrap;rounded=0;fontSize=16;fontStyle=1" vertex="1" parent="1">
          <mxGeometry x="294.5" y="4402" width="114.75" height="30" as="geometry" />
        </mxCell>
        <mxCell id="Lwe1MgsLQpCPCCq5rCXx-64" value="file1.txt" style="text;html=1;align=center;verticalAlign=middle;whiteSpace=wrap;rounded=0;" vertex="1" parent="1">
          <mxGeometry x="307" y="4447" width="80" height="30" as="geometry" />
        </mxCell>
        <mxCell id="Lwe1MgsLQpCPCCq5rCXx-65" value="" style="rounded=1;whiteSpace=wrap;html=1;strokeWidth=2;" vertex="1" parent="1">
          <mxGeometry x="497.25" y="4432" width="187" height="190" as="geometry" />
        </mxCell>
        <mxCell id="Lwe1MgsLQpCPCCq5rCXx-66" value="Staging Area" style="text;html=1;align=center;verticalAlign=middle;whiteSpace=wrap;rounded=0;fontSize=16;fontStyle=1" vertex="1" parent="1">
          <mxGeometry x="545.25" y="4402" width="109.25" height="30" as="geometry" />
        </mxCell>
        <mxCell id="Lwe1MgsLQpCPCCq5rCXx-67" value="" style="whiteSpace=wrap;html=1;shape=mxgraph.basic.document;strokeWidth=2;fillColor=#fff2cc;strokeColor=#d6b656;" vertex="1" parent="1">
          <mxGeometry x="294.5" y="4477" width="105" height="100" as="geometry" />
        </mxCell>
        <mxCell id="Lwe1MgsLQpCPCCq5rCXx-68" value="first commit" style="text;html=1;align=center;verticalAlign=middle;whiteSpace=wrap;rounded=0;" vertex="1" parent="1">
          <mxGeometry x="301.5" y="4487" width="65" height="30" as="geometry" />
        </mxCell>
        <mxCell id="Lwe1MgsLQpCPCCq5rCXx-73" value="file1.txt" style="text;html=1;align=center;verticalAlign=middle;whiteSpace=wrap;rounded=0;" vertex="1" parent="1">
          <mxGeometry x="550.75" y="4447" width="80" height="30" as="geometry" />
        </mxCell>
        <mxCell id="Lwe1MgsLQpCPCCq5rCXx-74" value="" style="whiteSpace=wrap;html=1;shape=mxgraph.basic.document;strokeWidth=2;fillColor=#fff2cc;strokeColor=#d6b656;" vertex="1" parent="1">
          <mxGeometry x="538.25" y="4477" width="105" height="100" as="geometry" />
        </mxCell>
        <mxCell id="Lwe1MgsLQpCPCCq5rCXx-75" value="first commit" style="text;html=1;align=center;verticalAlign=middle;whiteSpace=wrap;rounded=0;" vertex="1" parent="1">
          <mxGeometry x="545.25" y="4487" width="65" height="30" as="geometry" />
        </mxCell>
        <mxCell id="Lwe1MgsLQpCPCCq5rCXx-77" value="" style="rounded=1;whiteSpace=wrap;html=1;strokeWidth=2;strokeColor=none;absoluteArcSize=1;arcSize=0;" vertex="1" parent="1">
          <mxGeometry x="212" y="3780" width="990" height="450" as="geometry" />
        </mxCell>
        <mxCell id="Lwe1MgsLQpCPCCq5rCXx-78" value="" style="rounded=1;whiteSpace=wrap;html=1;strokeWidth=2;strokeColor=none;absoluteArcSize=1;arcSize=0;" vertex="1" parent="1">
          <mxGeometry x="212" y="3600" width="990" height="450" as="geometry" />
        </mxCell>
        <mxCell id="Lwe1MgsLQpCPCCq5rCXx-79" style="edgeStyle=orthogonalEdgeStyle;rounded=0;orthogonalLoop=1;jettySize=auto;html=1;endArrow=none;endFill=0;startArrow=classic;startFill=1;strokeWidth=2;" edge="1" parent="1">
          <mxGeometry relative="1" as="geometry">
            <mxPoint x="901.5" y="4172" as="targetPoint" />
            <mxPoint x="901.5" y="4132" as="sourcePoint" />
          </mxGeometry>
        </mxCell>
        <mxCell id="Lwe1MgsLQpCPCCq5rCXx-80" value="&lt;font style=&quot;font-size: 16px;&quot;&gt;HEAD&lt;/font&gt;" style="text;html=1;align=center;verticalAlign=middle;whiteSpace=wrap;rounded=0;fillColor=#f8cecc;strokeColor=#b85450;" vertex="1" parent="1">
          <mxGeometry x="872" y="4162" width="60" height="30" as="geometry" />
        </mxCell>
        <mxCell id="Lwe1MgsLQpCPCCq5rCXx-81" value="&lt;font style=&quot;font-size: 16px;&quot;&gt;master&lt;/font&gt;" style="text;html=1;align=center;verticalAlign=middle;whiteSpace=wrap;rounded=0;fillColor=#dae8fc;strokeColor=#6c8ebf;" vertex="1" parent="1">
          <mxGeometry x="872" y="4102" width="60" height="30" as="geometry" />
        </mxCell>
        <mxCell id="Lwe1MgsLQpCPCCq5rCXx-82" value="" style="endArrow=classic;html=1;rounded=0;entryX=0.5;entryY=1;entryDx=0;entryDy=0;exitX=0.5;exitY=0;exitDx=0;exitDy=0;strokeWidth=2;" edge="1" parent="1" source="Lwe1MgsLQpCPCCq5rCXx-81">
          <mxGeometry width="50" height="50" relative="1" as="geometry">
            <mxPoint x="842" y="4132" as="sourcePoint" />
            <mxPoint x="902" y="4062" as="targetPoint" />
          </mxGeometry>
        </mxCell>
        <mxCell id="Lwe1MgsLQpCPCCq5rCXx-83" style="edgeStyle=orthogonalEdgeStyle;rounded=0;orthogonalLoop=1;jettySize=auto;html=1;entryX=1;entryY=0.5;entryDx=0;entryDy=0;strokeWidth=2;" edge="1" parent="1" source="Lwe1MgsLQpCPCCq5rCXx-94" target="Lwe1MgsLQpCPCCq5rCXx-89">
          <mxGeometry relative="1" as="geometry" />
        </mxCell>
        <mxCell id="Lwe1MgsLQpCPCCq5rCXx-84" value="&lt;font style=&quot;font-size: 16px;&quot;&gt;&quot;fourth commit&quot;&lt;/font&gt;" style="text;html=1;align=center;verticalAlign=middle;whiteSpace=wrap;rounded=0;" vertex="1" parent="1">
          <mxGeometry x="781.5" y="3952" width="120.5" height="30" as="geometry" />
        </mxCell>
        <mxCell id="Lwe1MgsLQpCPCCq5rCXx-85" value="file1.txt" style="text;html=1;align=center;verticalAlign=middle;whiteSpace=wrap;rounded=0;" vertex="1" parent="1">
          <mxGeometry x="488.5" y="3882" width="80" height="30" as="geometry" />
        </mxCell>
        <mxCell id="Lwe1MgsLQpCPCCq5rCXx-86" value="" style="whiteSpace=wrap;html=1;shape=mxgraph.basic.document;strokeWidth=2;fillColor=#fff2cc;strokeColor=#d6b656;" vertex="1" parent="1">
          <mxGeometry x="476" y="3912" width="105" height="100" as="geometry" />
        </mxCell>
        <mxCell id="Lwe1MgsLQpCPCCq5rCXx-87" value="first commit" style="text;html=1;align=center;verticalAlign=middle;whiteSpace=wrap;rounded=0;" vertex="1" parent="1">
          <mxGeometry x="483" y="3922" width="65" height="30" as="geometry" />
        </mxCell>
        <mxCell id="Lwe1MgsLQpCPCCq5rCXx-88" value="&lt;font style=&quot;font-size: 16px;&quot;&gt;&quot;first commit&quot;&lt;/font&gt;" style="text;html=1;align=center;verticalAlign=middle;whiteSpace=wrap;rounded=0;" vertex="1" parent="1">
          <mxGeometry x="365" y="3952" width="110.5" height="30" as="geometry" />
        </mxCell>
        <mxCell id="Lwe1MgsLQpCPCCq5rCXx-89" value="&lt;font style=&quot;font-size: 16px;&quot;&gt;5ebf39d&lt;/font&gt;" style="ellipse;whiteSpace=wrap;html=1;aspect=fixed;strokeWidth=2;fillColor=#dae8fc;strokeColor=#6c8ebf;" vertex="1" parent="1">
          <mxGeometry x="427.25" y="3982" width="80" height="80" as="geometry" />
        </mxCell>
        <mxCell id="Lwe1MgsLQpCPCCq5rCXx-90" value="file1.txt" style="text;html=1;align=center;verticalAlign=middle;whiteSpace=wrap;rounded=0;" vertex="1" parent="1">
          <mxGeometry x="914.5" y="3882" width="80" height="30" as="geometry" />
        </mxCell>
        <mxCell id="Lwe1MgsLQpCPCCq5rCXx-91" value="" style="whiteSpace=wrap;html=1;shape=mxgraph.basic.document;strokeWidth=2;fillColor=#fff2cc;strokeColor=#d6b656;" vertex="1" parent="1">
          <mxGeometry x="902" y="3912" width="105" height="100" as="geometry" />
        </mxCell>
        <mxCell id="Lwe1MgsLQpCPCCq5rCXx-92" value="first commit" style="text;html=1;align=center;verticalAlign=middle;whiteSpace=wrap;rounded=0;" vertex="1" parent="1">
          <mxGeometry x="909" y="3922" width="65" height="30" as="geometry" />
        </mxCell>
        <mxCell id="Lwe1MgsLQpCPCCq5rCXx-93" value="second commit" style="text;html=1;align=center;verticalAlign=middle;whiteSpace=wrap;rounded=0;" vertex="1" parent="1">
          <mxGeometry x="900" y="3942" width="103" height="30" as="geometry" />
        </mxCell>
        <mxCell id="Lwe1MgsLQpCPCCq5rCXx-94" value="&lt;font style=&quot;font-size: 16px;&quot;&gt;23a76be&lt;/font&gt;" style="ellipse;whiteSpace=wrap;html=1;aspect=fixed;strokeWidth=2;fillColor=#dae8fc;strokeColor=#6c8ebf;" vertex="1" parent="1">
          <mxGeometry x="862" y="3982" width="80" height="80" as="geometry" />
        </mxCell>
        <mxCell id="Lwe1MgsLQpCPCCq5rCXx-105" value="git reset --hard HEAD&lt;span style=&quot;color: rgb(32, 33, 34); font-family: sans-serif; text-align: start; background-color: rgb(255, 255, 255);&quot;&gt;~1&lt;/span&gt;" style="rounded=1;whiteSpace=wrap;html=1;fillColor=#f5f5f5;fontColor=#333333;strokeColor=#666666;fontStyle=1;fontSize=16;" vertex="1" parent="1">
          <mxGeometry x="594.87" y="4352" width="205.13" height="40" as="geometry" />
        </mxCell>
        <mxCell id="Lwe1MgsLQpCPCCq5rCXx-106" value="" style="rounded=1;whiteSpace=wrap;html=1;strokeWidth=2;strokeColor=none;absoluteArcSize=1;arcSize=0;" vertex="1" parent="1">
          <mxGeometry x="212" y="5300" width="990" height="450" as="geometry" />
        </mxCell>
        <mxCell id="Lwe1MgsLQpCPCCq5rCXx-107" value="" style="rounded=1;whiteSpace=wrap;html=1;strokeWidth=2;strokeColor=none;absoluteArcSize=1;arcSize=0;" vertex="1" parent="1">
          <mxGeometry x="212" y="5120" width="990" height="450" as="geometry" />
        </mxCell>
        <mxCell id="Lwe1MgsLQpCPCCq5rCXx-108" style="edgeStyle=orthogonalEdgeStyle;rounded=0;orthogonalLoop=1;jettySize=auto;html=1;endArrow=none;endFill=0;startArrow=classic;startFill=1;strokeWidth=2;" edge="1" parent="1">
          <mxGeometry relative="1" as="geometry">
            <mxPoint x="466.75" y="5692" as="targetPoint" />
            <mxPoint x="466.75" y="5652" as="sourcePoint" />
          </mxGeometry>
        </mxCell>
        <mxCell id="Lwe1MgsLQpCPCCq5rCXx-109" value="&lt;font style=&quot;font-size: 16px;&quot;&gt;HEAD&lt;/font&gt;" style="text;html=1;align=center;verticalAlign=middle;whiteSpace=wrap;rounded=0;fillColor=#f8cecc;strokeColor=#b85450;" vertex="1" parent="1">
          <mxGeometry x="437.25" y="5682" width="60" height="30" as="geometry" />
        </mxCell>
        <mxCell id="Lwe1MgsLQpCPCCq5rCXx-110" value="&lt;font style=&quot;font-size: 16px;&quot;&gt;master&lt;/font&gt;" style="text;html=1;align=center;verticalAlign=middle;whiteSpace=wrap;rounded=0;fillColor=#dae8fc;strokeColor=#6c8ebf;" vertex="1" parent="1">
          <mxGeometry x="437.25" y="5622" width="60" height="30" as="geometry" />
        </mxCell>
        <mxCell id="Lwe1MgsLQpCPCCq5rCXx-111" value="" style="endArrow=classic;html=1;rounded=0;entryX=0.5;entryY=1;entryDx=0;entryDy=0;exitX=0.5;exitY=0;exitDx=0;exitDy=0;strokeWidth=2;" edge="1" parent="1" source="Lwe1MgsLQpCPCCq5rCXx-110">
          <mxGeometry width="50" height="50" relative="1" as="geometry">
            <mxPoint x="407.25" y="5652" as="sourcePoint" />
            <mxPoint x="467.25" y="5582" as="targetPoint" />
          </mxGeometry>
        </mxCell>
        <mxCell id="Lwe1MgsLQpCPCCq5rCXx-112" style="edgeStyle=orthogonalEdgeStyle;rounded=0;orthogonalLoop=1;jettySize=auto;html=1;entryX=1;entryY=0.5;entryDx=0;entryDy=0;strokeWidth=2;opacity=40;" edge="1" parent="1" source="Lwe1MgsLQpCPCCq5rCXx-123" target="Lwe1MgsLQpCPCCq5rCXx-118">
          <mxGeometry relative="1" as="geometry" />
        </mxCell>
        <mxCell id="Lwe1MgsLQpCPCCq5rCXx-113" value="&lt;font style=&quot;font-size: 16px;&quot;&gt;&quot;fourth commit&quot;&lt;/font&gt;" style="text;html=1;align=center;verticalAlign=middle;whiteSpace=wrap;rounded=0;fontColor=#BFBFBF;" vertex="1" parent="1">
          <mxGeometry x="781.5" y="5472" width="120.5" height="30" as="geometry" />
        </mxCell>
        <mxCell id="Lwe1MgsLQpCPCCq5rCXx-114" value="file1.txt" style="text;html=1;align=center;verticalAlign=middle;whiteSpace=wrap;rounded=0;" vertex="1" parent="1">
          <mxGeometry x="488.5" y="5402" width="80" height="30" as="geometry" />
        </mxCell>
        <mxCell id="Lwe1MgsLQpCPCCq5rCXx-115" value="" style="whiteSpace=wrap;html=1;shape=mxgraph.basic.document;strokeWidth=2;fillColor=#fff2cc;strokeColor=#d6b656;" vertex="1" parent="1">
          <mxGeometry x="476" y="5432" width="105" height="100" as="geometry" />
        </mxCell>
        <mxCell id="Lwe1MgsLQpCPCCq5rCXx-116" value="first commit" style="text;html=1;align=center;verticalAlign=middle;whiteSpace=wrap;rounded=0;" vertex="1" parent="1">
          <mxGeometry x="483" y="5442" width="65" height="30" as="geometry" />
        </mxCell>
        <mxCell id="Lwe1MgsLQpCPCCq5rCXx-117" value="&lt;font style=&quot;font-size: 16px;&quot;&gt;&quot;first commit&quot;&lt;/font&gt;" style="text;html=1;align=center;verticalAlign=middle;whiteSpace=wrap;rounded=0;" vertex="1" parent="1">
          <mxGeometry x="365" y="5472" width="110.5" height="30" as="geometry" />
        </mxCell>
        <mxCell id="Lwe1MgsLQpCPCCq5rCXx-118" value="&lt;font style=&quot;font-size: 16px;&quot;&gt;5ebf39d&lt;/font&gt;" style="ellipse;whiteSpace=wrap;html=1;aspect=fixed;strokeWidth=2;fillColor=#dae8fc;strokeColor=#6c8ebf;" vertex="1" parent="1">
          <mxGeometry x="427.25" y="5502" width="80" height="80" as="geometry" />
        </mxCell>
        <mxCell id="Lwe1MgsLQpCPCCq5rCXx-119" value="file1.txt" style="text;html=1;align=center;verticalAlign=middle;whiteSpace=wrap;rounded=0;fontColor=#BFBFBF;" vertex="1" parent="1">
          <mxGeometry x="914.5" y="5402" width="80" height="30" as="geometry" />
        </mxCell>
        <mxCell id="Lwe1MgsLQpCPCCq5rCXx-120" value="" style="whiteSpace=wrap;html=1;shape=mxgraph.basic.document;strokeWidth=2;fillColor=#fff2cc;strokeColor=#d6b656;opacity=40;" vertex="1" parent="1">
          <mxGeometry x="902" y="5432" width="105" height="100" as="geometry" />
        </mxCell>
        <mxCell id="Lwe1MgsLQpCPCCq5rCXx-121" value="first commit" style="text;html=1;align=center;verticalAlign=middle;whiteSpace=wrap;rounded=0;fontColor=#BFBFBF;" vertex="1" parent="1">
          <mxGeometry x="909" y="5442" width="65" height="30" as="geometry" />
        </mxCell>
        <mxCell id="Lwe1MgsLQpCPCCq5rCXx-122" value="second commit" style="text;html=1;align=center;verticalAlign=middle;whiteSpace=wrap;rounded=0;fontColor=#BFBFBF;" vertex="1" parent="1">
          <mxGeometry x="900" y="5462" width="103" height="30" as="geometry" />
        </mxCell>
        <mxCell id="Lwe1MgsLQpCPCCq5rCXx-123" value="&lt;font style=&quot;font-size: 16px;&quot;&gt;23a76be&lt;/font&gt;" style="ellipse;whiteSpace=wrap;html=1;aspect=fixed;strokeWidth=2;fillColor=#dae8fc;strokeColor=#6c8ebf;opacity=40;fontColor=#BFBFBF;" vertex="1" parent="1">
          <mxGeometry x="862" y="5502" width="80" height="80" as="geometry" />
        </mxCell>
        <mxCell id="Lwe1MgsLQpCPCCq5rCXx-124" value="" style="rounded=1;whiteSpace=wrap;html=1;strokeWidth=2;" vertex="1" parent="1">
          <mxGeometry x="262" y="5202" width="190" height="190" as="geometry" />
        </mxCell>
        <mxCell id="Lwe1MgsLQpCPCCq5rCXx-125" value="Working Area" style="text;html=1;align=center;verticalAlign=middle;whiteSpace=wrap;rounded=0;fontSize=16;fontStyle=1" vertex="1" parent="1">
          <mxGeometry x="304.5" y="5172" width="114.75" height="30" as="geometry" />
        </mxCell>
        <mxCell id="Lwe1MgsLQpCPCCq5rCXx-126" value="file1.txt" style="text;html=1;align=center;verticalAlign=middle;whiteSpace=wrap;rounded=0;" vertex="1" parent="1">
          <mxGeometry x="317" y="5217" width="80" height="30" as="geometry" />
        </mxCell>
        <mxCell id="Lwe1MgsLQpCPCCq5rCXx-127" value="" style="rounded=1;whiteSpace=wrap;html=1;strokeWidth=2;" vertex="1" parent="1">
          <mxGeometry x="507.25" y="5202" width="187" height="190" as="geometry" />
        </mxCell>
        <mxCell id="Lwe1MgsLQpCPCCq5rCXx-128" value="Staging Area" style="text;html=1;align=center;verticalAlign=middle;whiteSpace=wrap;rounded=0;fontSize=16;fontStyle=1" vertex="1" parent="1">
          <mxGeometry x="555.25" y="5172" width="109.25" height="30" as="geometry" />
        </mxCell>
        <mxCell id="Lwe1MgsLQpCPCCq5rCXx-129" value="" style="whiteSpace=wrap;html=1;shape=mxgraph.basic.document;strokeWidth=2;fillColor=#fff2cc;strokeColor=#d6b656;" vertex="1" parent="1">
          <mxGeometry x="304.5" y="5247" width="105" height="100" as="geometry" />
        </mxCell>
        <mxCell id="Lwe1MgsLQpCPCCq5rCXx-130" value="first commit" style="text;html=1;align=center;verticalAlign=middle;whiteSpace=wrap;rounded=0;" vertex="1" parent="1">
          <mxGeometry x="311.5" y="5257" width="65" height="30" as="geometry" />
        </mxCell>
        <mxCell id="Lwe1MgsLQpCPCCq5rCXx-131" value="file1.txt" style="text;html=1;align=center;verticalAlign=middle;whiteSpace=wrap;rounded=0;" vertex="1" parent="1">
          <mxGeometry x="560.75" y="5217" width="80" height="30" as="geometry" />
        </mxCell>
        <mxCell id="Lwe1MgsLQpCPCCq5rCXx-132" value="" style="whiteSpace=wrap;html=1;shape=mxgraph.basic.document;strokeWidth=2;fillColor=#fff2cc;strokeColor=#d6b656;" vertex="1" parent="1">
          <mxGeometry x="548.25" y="5247" width="105" height="100" as="geometry" />
        </mxCell>
        <mxCell id="Lwe1MgsLQpCPCCq5rCXx-133" value="first commit" style="text;html=1;align=center;verticalAlign=middle;whiteSpace=wrap;rounded=0;" vertex="1" parent="1">
          <mxGeometry x="555.25" y="5257" width="65" height="30" as="geometry" />
        </mxCell>
        <mxCell id="Lwe1MgsLQpCPCCq5rCXx-134" value="git reset --mixed HEAD&lt;span style=&quot;color: rgb(32, 33, 34); font-family: sans-serif; text-align: start; background-color: rgb(255, 255, 255);&quot;&gt;~1&lt;/span&gt;" style="rounded=1;whiteSpace=wrap;html=1;fillColor=#f5f5f5;fontColor=#333333;strokeColor=#666666;fontStyle=1;fontSize=16;" vertex="1" parent="1">
          <mxGeometry x="604.87" y="5122" width="205.13" height="40" as="geometry" />
        </mxCell>
        <mxCell id="Lwe1MgsLQpCPCCq5rCXx-135" value="second commit" style="text;html=1;align=center;verticalAlign=middle;whiteSpace=wrap;rounded=0;fontColor=#000000;" vertex="1" parent="1">
          <mxGeometry x="303.37" y="5282" width="103" height="30" as="geometry" />
        </mxCell>
        <mxCell id="Lwe1MgsLQpCPCCq5rCXx-136" value="" style="rounded=1;whiteSpace=wrap;html=1;strokeWidth=2;strokeColor=none;absoluteArcSize=1;arcSize=0;" vertex="1" parent="1">
          <mxGeometry x="222" y="6080" width="990" height="450" as="geometry" />
        </mxCell>
        <mxCell id="Lwe1MgsLQpCPCCq5rCXx-137" value="" style="rounded=1;whiteSpace=wrap;html=1;strokeWidth=2;strokeColor=none;absoluteArcSize=1;arcSize=0;" vertex="1" parent="1">
          <mxGeometry x="222" y="5900" width="990" height="450" as="geometry" />
        </mxCell>
        <mxCell id="Lwe1MgsLQpCPCCq5rCXx-138" style="edgeStyle=orthogonalEdgeStyle;rounded=0;orthogonalLoop=1;jettySize=auto;html=1;endArrow=none;endFill=0;startArrow=classic;startFill=1;strokeWidth=2;" edge="1" parent="1">
          <mxGeometry relative="1" as="geometry">
            <mxPoint x="476.75" y="6472" as="targetPoint" />
            <mxPoint x="476.75" y="6432" as="sourcePoint" />
          </mxGeometry>
        </mxCell>
        <mxCell id="Lwe1MgsLQpCPCCq5rCXx-139" value="&lt;font style=&quot;font-size: 16px;&quot;&gt;HEAD&lt;/font&gt;" style="text;html=1;align=center;verticalAlign=middle;whiteSpace=wrap;rounded=0;fillColor=#f8cecc;strokeColor=#b85450;" vertex="1" parent="1">
          <mxGeometry x="447.25" y="6462" width="60" height="30" as="geometry" />
        </mxCell>
        <mxCell id="Lwe1MgsLQpCPCCq5rCXx-140" value="&lt;font style=&quot;font-size: 16px;&quot;&gt;master&lt;/font&gt;" style="text;html=1;align=center;verticalAlign=middle;whiteSpace=wrap;rounded=0;fillColor=#dae8fc;strokeColor=#6c8ebf;" vertex="1" parent="1">
          <mxGeometry x="447.25" y="6402" width="60" height="30" as="geometry" />
        </mxCell>
        <mxCell id="Lwe1MgsLQpCPCCq5rCXx-141" value="" style="endArrow=classic;html=1;rounded=0;entryX=0.5;entryY=1;entryDx=0;entryDy=0;exitX=0.5;exitY=0;exitDx=0;exitDy=0;strokeWidth=2;" edge="1" parent="1" source="Lwe1MgsLQpCPCCq5rCXx-140">
          <mxGeometry width="50" height="50" relative="1" as="geometry">
            <mxPoint x="417.25" y="6432" as="sourcePoint" />
            <mxPoint x="477.25" y="6362" as="targetPoint" />
          </mxGeometry>
        </mxCell>
        <mxCell id="Lwe1MgsLQpCPCCq5rCXx-142" style="edgeStyle=orthogonalEdgeStyle;rounded=0;orthogonalLoop=1;jettySize=auto;html=1;entryX=1;entryY=0.5;entryDx=0;entryDy=0;strokeWidth=2;opacity=40;" edge="1" parent="1" source="Lwe1MgsLQpCPCCq5rCXx-153" target="Lwe1MgsLQpCPCCq5rCXx-148">
          <mxGeometry relative="1" as="geometry" />
        </mxCell>
        <mxCell id="Lwe1MgsLQpCPCCq5rCXx-143" value="&lt;font style=&quot;font-size: 16px;&quot;&gt;&quot;fourth commit&quot;&lt;/font&gt;" style="text;html=1;align=center;verticalAlign=middle;whiteSpace=wrap;rounded=0;fontColor=#BFBFBF;" vertex="1" parent="1">
          <mxGeometry x="791.5" y="6252" width="120.5" height="30" as="geometry" />
        </mxCell>
        <mxCell id="Lwe1MgsLQpCPCCq5rCXx-144" value="file1.txt" style="text;html=1;align=center;verticalAlign=middle;whiteSpace=wrap;rounded=0;" vertex="1" parent="1">
          <mxGeometry x="498.5" y="6182" width="80" height="30" as="geometry" />
        </mxCell>
        <mxCell id="Lwe1MgsLQpCPCCq5rCXx-145" value="" style="whiteSpace=wrap;html=1;shape=mxgraph.basic.document;strokeWidth=2;fillColor=#fff2cc;strokeColor=#d6b656;" vertex="1" parent="1">
          <mxGeometry x="486" y="6212" width="105" height="100" as="geometry" />
        </mxCell>
        <mxCell id="Lwe1MgsLQpCPCCq5rCXx-146" value="first commit" style="text;html=1;align=center;verticalAlign=middle;whiteSpace=wrap;rounded=0;" vertex="1" parent="1">
          <mxGeometry x="493" y="6222" width="65" height="30" as="geometry" />
        </mxCell>
        <mxCell id="Lwe1MgsLQpCPCCq5rCXx-147" value="&lt;font style=&quot;font-size: 16px;&quot;&gt;&quot;first commit&quot;&lt;/font&gt;" style="text;html=1;align=center;verticalAlign=middle;whiteSpace=wrap;rounded=0;" vertex="1" parent="1">
          <mxGeometry x="375" y="6252" width="110.5" height="30" as="geometry" />
        </mxCell>
        <mxCell id="Lwe1MgsLQpCPCCq5rCXx-148" value="&lt;font style=&quot;font-size: 16px;&quot;&gt;5ebf39d&lt;/font&gt;" style="ellipse;whiteSpace=wrap;html=1;aspect=fixed;strokeWidth=2;fillColor=#dae8fc;strokeColor=#6c8ebf;" vertex="1" parent="1">
          <mxGeometry x="437.25" y="6282" width="80" height="80" as="geometry" />
        </mxCell>
        <mxCell id="Lwe1MgsLQpCPCCq5rCXx-149" value="file1.txt" style="text;html=1;align=center;verticalAlign=middle;whiteSpace=wrap;rounded=0;fontColor=#BFBFBF;" vertex="1" parent="1">
          <mxGeometry x="924.5" y="6182" width="80" height="30" as="geometry" />
        </mxCell>
        <mxCell id="Lwe1MgsLQpCPCCq5rCXx-150" value="" style="whiteSpace=wrap;html=1;shape=mxgraph.basic.document;strokeWidth=2;fillColor=#fff2cc;strokeColor=#d6b656;opacity=40;" vertex="1" parent="1">
          <mxGeometry x="912" y="6212" width="105" height="100" as="geometry" />
        </mxCell>
        <mxCell id="Lwe1MgsLQpCPCCq5rCXx-151" value="first commit" style="text;html=1;align=center;verticalAlign=middle;whiteSpace=wrap;rounded=0;fontColor=#BFBFBF;" vertex="1" parent="1">
          <mxGeometry x="919" y="6222" width="65" height="30" as="geometry" />
        </mxCell>
        <mxCell id="Lwe1MgsLQpCPCCq5rCXx-152" value="second commit" style="text;html=1;align=center;verticalAlign=middle;whiteSpace=wrap;rounded=0;fontColor=#BFBFBF;" vertex="1" parent="1">
          <mxGeometry x="910" y="6242" width="103" height="30" as="geometry" />
        </mxCell>
        <mxCell id="Lwe1MgsLQpCPCCq5rCXx-153" value="&lt;font style=&quot;font-size: 16px;&quot;&gt;23a76be&lt;/font&gt;" style="ellipse;whiteSpace=wrap;html=1;aspect=fixed;strokeWidth=2;fillColor=#dae8fc;strokeColor=#6c8ebf;opacity=40;fontColor=#BFBFBF;" vertex="1" parent="1">
          <mxGeometry x="872" y="6282" width="80" height="80" as="geometry" />
        </mxCell>
        <mxCell id="Lwe1MgsLQpCPCCq5rCXx-154" value="" style="rounded=1;whiteSpace=wrap;html=1;strokeWidth=2;" vertex="1" parent="1">
          <mxGeometry x="272" y="5982" width="190" height="190" as="geometry" />
        </mxCell>
        <mxCell id="Lwe1MgsLQpCPCCq5rCXx-155" value="Working Area" style="text;html=1;align=center;verticalAlign=middle;whiteSpace=wrap;rounded=0;fontSize=16;fontStyle=1" vertex="1" parent="1">
          <mxGeometry x="314.5" y="5952" width="114.75" height="30" as="geometry" />
        </mxCell>
        <mxCell id="Lwe1MgsLQpCPCCq5rCXx-156" value="file1.txt" style="text;html=1;align=center;verticalAlign=middle;whiteSpace=wrap;rounded=0;" vertex="1" parent="1">
          <mxGeometry x="327" y="5997" width="80" height="30" as="geometry" />
        </mxCell>
        <mxCell id="Lwe1MgsLQpCPCCq5rCXx-157" value="" style="rounded=1;whiteSpace=wrap;html=1;strokeWidth=2;" vertex="1" parent="1">
          <mxGeometry x="517.25" y="5982" width="187" height="190" as="geometry" />
        </mxCell>
        <mxCell id="Lwe1MgsLQpCPCCq5rCXx-158" value="Staging Area" style="text;html=1;align=center;verticalAlign=middle;whiteSpace=wrap;rounded=0;fontSize=16;fontStyle=1" vertex="1" parent="1">
          <mxGeometry x="565.25" y="5952" width="109.25" height="30" as="geometry" />
        </mxCell>
        <mxCell id="Lwe1MgsLQpCPCCq5rCXx-159" value="" style="whiteSpace=wrap;html=1;shape=mxgraph.basic.document;strokeWidth=2;fillColor=#fff2cc;strokeColor=#d6b656;" vertex="1" parent="1">
          <mxGeometry x="314.5" y="6027" width="105" height="100" as="geometry" />
        </mxCell>
        <mxCell id="Lwe1MgsLQpCPCCq5rCXx-160" value="first commit" style="text;html=1;align=center;verticalAlign=middle;whiteSpace=wrap;rounded=0;" vertex="1" parent="1">
          <mxGeometry x="321.5" y="6037" width="65" height="30" as="geometry" />
        </mxCell>
        <mxCell id="Lwe1MgsLQpCPCCq5rCXx-161" value="file1.txt" style="text;html=1;align=center;verticalAlign=middle;whiteSpace=wrap;rounded=0;" vertex="1" parent="1">
          <mxGeometry x="570.75" y="5997" width="80" height="30" as="geometry" />
        </mxCell>
        <mxCell id="Lwe1MgsLQpCPCCq5rCXx-162" value="" style="whiteSpace=wrap;html=1;shape=mxgraph.basic.document;strokeWidth=2;fillColor=#fff2cc;strokeColor=#d6b656;" vertex="1" parent="1">
          <mxGeometry x="558.25" y="6027" width="105" height="100" as="geometry" />
        </mxCell>
        <mxCell id="Lwe1MgsLQpCPCCq5rCXx-163" value="first commit" style="text;html=1;align=center;verticalAlign=middle;whiteSpace=wrap;rounded=0;" vertex="1" parent="1">
          <mxGeometry x="565.25" y="6037" width="65" height="30" as="geometry" />
        </mxCell>
        <mxCell id="Lwe1MgsLQpCPCCq5rCXx-164" value="git reset --soft HEAD&lt;span style=&quot;color: rgb(32, 33, 34); font-family: sans-serif; text-align: start; background-color: rgb(255, 255, 255);&quot;&gt;~1&lt;/span&gt;" style="rounded=1;whiteSpace=wrap;html=1;fillColor=#f5f5f5;fontColor=#333333;strokeColor=#666666;fontStyle=1;fontSize=16;" vertex="1" parent="1">
          <mxGeometry x="614.87" y="5902" width="205.13" height="40" as="geometry" />
        </mxCell>
        <mxCell id="Lwe1MgsLQpCPCCq5rCXx-165" value="second commit" style="text;html=1;align=center;verticalAlign=middle;whiteSpace=wrap;rounded=0;fontColor=#000000;" vertex="1" parent="1">
          <mxGeometry x="313.37" y="6062" width="103" height="30" as="geometry" />
        </mxCell>
        <mxCell id="Lwe1MgsLQpCPCCq5rCXx-166" value="second commit" style="text;html=1;align=center;verticalAlign=middle;whiteSpace=wrap;rounded=0;fontColor=#000000;" vertex="1" parent="1">
          <mxGeometry x="555" y="6059" width="103" height="30" as="geometry" />
        </mxCell>
        <mxCell id="Lwe1MgsLQpCPCCq5rCXx-167" value="" style="rounded=0;whiteSpace=wrap;html=1;strokeWidth=2;" vertex="1" parent="1">
          <mxGeometry x="327" y="6610" width="1103" height="580" as="geometry" />
        </mxCell>
        <mxCell id="Lwe1MgsLQpCPCCq5rCXx-168" value="" style="rounded=0;whiteSpace=wrap;html=1;strokeWidth=2;" vertex="1" parent="1">
          <mxGeometry x="346.5" y="6680" width="853.5" height="490" as="geometry" />
        </mxCell>
        <mxCell id="Lwe1MgsLQpCPCCq5rCXx-169" value="" style="rounded=0;whiteSpace=wrap;html=1;strokeWidth=2;" vertex="1" parent="1">
          <mxGeometry x="365.25" y="6780" width="604.75" height="370" as="geometry" />
        </mxCell>
        <mxCell id="Lwe1MgsLQpCPCCq5rCXx-170" value="" style="rounded=0;whiteSpace=wrap;html=1;strokeWidth=2;" vertex="1" parent="1">
          <mxGeometry x="391.63" y="6880" width="368.37" height="250" as="geometry" />
        </mxCell>
        <mxCell id="Lwe1MgsLQpCPCCq5rCXx-172" value="&lt;font style=&quot;font-size: 16px;&quot;&gt;&lt;b&gt;hard&lt;/b&gt;&lt;/font&gt;" style="text;html=1;align=center;verticalAlign=middle;whiteSpace=wrap;rounded=0;" vertex="1" parent="1">
          <mxGeometry x="365" y="6710" width="145" height="30" as="geometry" />
        </mxCell>
        <mxCell id="Lwe1MgsLQpCPCCq5rCXx-173" value="&lt;span style=&quot;font-size: 16px;&quot;&gt;&lt;b&gt;mixed&lt;/b&gt;&lt;/span&gt;" style="text;html=1;align=center;verticalAlign=middle;whiteSpace=wrap;rounded=0;" vertex="1" parent="1">
          <mxGeometry x="387" y="6790" width="145" height="30" as="geometry" />
        </mxCell>
        <mxCell id="Lwe1MgsLQpCPCCq5rCXx-174" value="&lt;span style=&quot;font-size: 16px;&quot;&gt;&lt;b&gt;soft&lt;/b&gt;&lt;/span&gt;" style="text;html=1;align=center;verticalAlign=middle;whiteSpace=wrap;rounded=0;" vertex="1" parent="1">
          <mxGeometry x="406.37" y="6890" width="145" height="30" as="geometry" />
        </mxCell>
        <mxCell id="Lwe1MgsLQpCPCCq5rCXx-175" value="&lt;font style=&quot;font-size: 16px;&quot;&gt;HEAD&lt;/font&gt;" style="rounded=0;whiteSpace=wrap;html=1;strokeWidth=2;" vertex="1" parent="1">
          <mxGeometry x="466" y="7000" width="148.37" height="90" as="geometry" />
        </mxCell>
        <mxCell id="Lwe1MgsLQpCPCCq5rCXx-176" value="&lt;font style=&quot;font-size: 16px;&quot;&gt;Staging Area&lt;/font&gt;&lt;div&gt;&lt;span style=&quot;font-size: 16px;&quot;&gt;(index)&lt;/span&gt;&lt;/div&gt;" style="rounded=0;whiteSpace=wrap;html=1;strokeWidth=2;" vertex="1" parent="1">
          <mxGeometry x="777.5699999999999" y="7000" width="148.37" height="90" as="geometry" />
        </mxCell>
        <mxCell id="Lwe1MgsLQpCPCCq5rCXx-177" value="&lt;span style=&quot;font-size: 16px;&quot;&gt;Working Area&lt;/span&gt;&lt;div&gt;&lt;span style=&quot;font-size: 16px;&quot;&gt;(tracked files)&lt;/span&gt;&lt;/div&gt;" style="rounded=0;whiteSpace=wrap;html=1;strokeWidth=2;" vertex="1" parent="1">
          <mxGeometry x="1017" y="7000" width="148.37" height="90" as="geometry" />
        </mxCell>
        <mxCell id="Lwe1MgsLQpCPCCq5rCXx-178" value="&lt;span style=&quot;font-size: 16px;&quot;&gt;Working Area&lt;/span&gt;&lt;div&gt;&lt;span style=&quot;font-size: 16px;&quot;&gt;(untracked files)&lt;/span&gt;&lt;/div&gt;" style="rounded=0;whiteSpace=wrap;html=1;strokeWidth=2;" vertex="1" parent="1">
          <mxGeometry x="1241" y="7000" width="148.37" height="90" as="geometry" />
        </mxCell>
      </root>
    </mxGraphModel>
  </diagram>
</mxfile>
